<svg width="149" height="27" viewBox="0 0 149 27" fill="none" xmlns="http://www.w3.org/2000/svg">
  <path d="M21.2507 0.5H28.5436L17.9232 27H10.6302L0 0.5H7.29295L14.262 17.8958L21.2507 0.5ZM118.248 0.5L111.279 17.8958L104.31 0.5H97.0169L107.637 27H114.93L125.551 0.5H118.248ZM149 27L138.37 0.5H131.077L120.456 27H127.749L134.718 9.60417L141.687 27H149ZM30.8797 27H38.1727V0.5H30.8797V27ZM96.6439 13.5C95.682 31.9792 71.6633 30.8021 71.202 13.5C72.1639 -4.97917 96.1825 -3.80208 96.6439 13.5ZM89.6258 13.5C89.1546 5.13542 78.3968 5.92708 78.2201 13.5C78.7011 21.8646 89.4491 21.0729 89.6258 13.5ZM60.2675 15.7708L50.0102 0H42.7173C42.7173 1.63542 42.7173 1.375 42.7173 2.125C42.7173 6.40625 42.7173 26.9688 42.7173 27H50.0102C50.0102 26.9792 50.0102 18.1458 50.0102 14.1458C50.0102 12.1042 50.0102 13.1562 50.0102 11.2187L60.2675 27H67.5604C67.5604 25.6562 67.5604 26.0833 67.5604 25.4375C67.5604 21.5104 67.5604 0.0416667 67.5604 0H60.2675V15.7708Z" fill="#FF131D"></path>
</svg>
