<svg id="Layer_1" data-name="Layer 1" xmlns="http://www.w3.org/2000/svg" viewBox="0 0 195 44"><defs><style>.cls-1{fill:#333;}.cls-2{fill:#007fa3;}.cls-3{fill:#fff;}</style></defs><rect class="cls-1" x="152.76" y="11.71" width="2.23" height="26.22"/><polygon class="cls-1" points="180.47 31.92 178.12 31.92 178.12 19.58 173.9 19.58 173.9 17.57 184.69 17.57 184.69 19.58 180.47 19.58 180.47 31.92"/><path class="cls-2" d="M31.42,2.83C40.71,8.13,42.88,20,36.41,32c-5.69,10.57-18.1,15.08-27.34,9.7S-2,21.34,2,12.7C7.76.16,21.15-3,31.42,2.83"/><path class="cls-3" d="M31.2,12a9.2,9.2,0,0,1,2.07,7.31,9.74,9.74,0,0,1-4.81,7,15.88,15.88,0,0,1-7.95,1.9c0,.45-.11,2-.16,2.25a1.53,1.53,0,0,1-.35.77,2.56,2.56,0,0,1-1.36.8,4.3,4.3,0,0,1-1.13.17h-.14a1.42,1.42,0,0,1-.87-.41,1.51,1.51,0,0,1-.36-.88l0-.31c-.06-.26-.39-13.66-.32-13.42.05-1.61,2.64-1.89,4-1.61s1.06,2,1,4.11c0,0-.07,2.76-.2,5.69a10.71,10.71,0,0,0,4.55-1.25,6.66,6.66,0,0,0,4.12-6.4c0-3-2.94-6.39-8.35-6.39S13.22,12.63,10.6,14.8c-.59.49-1,1-1.48,1.31s-1.57.37-1.88-.39A2.64,2.64,0,0,1,8,13.29a14.6,14.6,0,0,1,4-3.24A17.06,17.06,0,0,1,19.75,7.8c3.08-.08,7.93.17,11.43,4.12M19.45,34.13a2.15,2.15,0,0,0-.92-.43,1.24,1.24,0,0,0-.33,0,2,2,0,0,0-1.59.89,2.19,2.19,0,0,0-.37,1.56,1.79,1.79,0,0,0,.38.86,1.76,1.76,0,0,0,.94.56,2.44,2.44,0,0,0,.71.1,2.18,2.18,0,0,0,1.36-.45,1.77,1.77,0,0,0,.65-1.39,2.17,2.17,0,0,0-.83-1.66"/><path class="cls-1" d="M91.31,31a2.12,2.12,0,0,1-.46.08c-.79,0-1-.66-1-1.7V21.69c0-2.89-1.72-4.36-5.12-4.36-3,0-5.43,1.44-5.43,3.28a1.6,1.6,0,0,0,1.64,1.75,1.69,1.69,0,0,0,1.76-1.65A2.33,2.33,0,0,0,81.91,19a3.53,3.53,0,0,1,2.57-.9c1.76,0,2.52,1.05,2.52,3.51V23.5c-3.3.85-8.23,1.5-8.23,5.26,0,1.6,1,3.39,3.87,3.39a6.14,6.14,0,0,0,4.5-2.25c.13,1.64.79,2.25,2.27,2.25a4.55,4.55,0,0,0,2.09-.53.39.39,0,0,0,.21-.48c-.07-.2-.25-.2-.4-.18M87,28.8a4.28,4.28,0,0,1-3,1.92c-1.8,0-2.2-1.34-2.2-2.46,0-1.85,1.41-2.94,5.2-3.87Z"/><path class="cls-1" d="M101.48,17.33c-1.4,0-2.75.79-3.9,2.68V17.9a.4.4,0,0,0-.42-.41l-3.76.1a.35.35,0,0,0,0,.7c1.24.18,1.4.76,1.4,1.37V30.19c0,.75-.19,1-1.38,1.07a.34.34,0,0,0-.31.33.33.33,0,0,0,.33.33h5.88a.33.33,0,0,0,0-.65c-1.36-.07-1.71-.29-1.71-1.08V21.54a4.71,4.71,0,0,1,2.83-2.71,2.48,2.48,0,0,0-.09.65,1.76,1.76,0,1,0,3.52,0,2.12,2.12,0,0,0-2.36-2.15"/><path class="cls-1" d="M146.22,31.26c-1.19-.07-1.38-.32-1.38-1.06V21.6c0-2.71-1.44-4.27-4.1-4.27a6,6,0,0,0-5,2.83V17.9a.39.39,0,0,0-.41-.41l-3.76.1a.34.34,0,0,0-.32.35.33.33,0,0,0,.28.35c1.23.18,1.4.76,1.4,1.37V30.2c0,.74-.19,1-1.38,1.06a.34.34,0,0,0-.31.33.33.33,0,0,0,.33.33H137a.32.32,0,0,0,.32-.33.33.33,0,0,0-.3-.33c-1.14-.07-1.26-.32-1.26-1.06V22c.87-1.76,2.39-3.09,3.87-3.09,1.81,0,2.44,1,2.44,3.52V30.2c0,.73-.16,1-1.12,1.06a.33.33,0,0,0-.3.33.34.34,0,0,0,.33.33h5.26a.33.33,0,0,0,.33-.33.34.34,0,0,0-.31-.33"/><path class="cls-1" d="M123.54,17.33a7.17,7.17,0,0,0-7.07,7.41,7.08,7.08,0,1,0,14.14,0,7.18,7.18,0,0,0-7.07-7.41m0,14c-3.06,0-3.89-3-3.89-6.63s.83-6.63,3.89-6.63,3.88,3,3.88,6.63-.83,6.63-3.88,6.63"/><path class="cls-1" d="M47.88,12.44c2.18.21,2.65,1,2.65,2v14.7c0,1.07-.47,1.82-2.65,2a.32.32,0,0,0-.3.35.34.34,0,0,0,.33.35h8.58a.34.34,0,0,0,.33-.35.31.31,0,0,0-.31-.35c-2.34-.18-2.83-.92-2.83-2V23.84h2.66c3.79,0,8.19-1.09,8.19-6.05s-4.72-6-8.68-6H47.91a.34.34,0,0,0-.33.35.32.32,0,0,0,.3.35m5.8.23H55.9c4.44,0,5.08,2.46,5.08,5.12s-.64,5.11-5.08,5.11H53.68Z"/><path class="cls-1" d="M71.13,17.33c-3.73,0-6.77,3.4-6.77,7.56s2.85,7.26,6.77,7.26a6.1,6.1,0,0,0,5.76-3.31c.15-.28.11-.57-.06-.66a.34.34,0,0,0-.45.11,5,5,0,0,1-4.11,2.4c-4.15,0-5-4.26-4.79-6.85h9c.45,0,.53-.26.53-.71a5.51,5.51,0,0,0-5.91-5.8m-3.6,5.57c.31-3.07,1.55-4.75,3.43-4.75,2.52,0,3,2.13,3,3.86,0,.31,0,.58,0,.89Z"/><path class="cls-1" d="M110.46,23.08c-2.55-.75-3.61-1.47-3.61-2.63a2.33,2.33,0,0,1,2.5-2.3c1.67,0,2.75.89,4.16,3.58.09.18.18.31.37.31s.35-.16.35-.46V17.75c0-.27,0-.42-.24-.42a.49.49,0,0,0-.35.2l-.61.62a7.12,7.12,0,0,0-3.16-.82c-3,0-5,1.86-5,4.49s1.7,3.35,4.48,4.17,3.73,1.54,3.73,3a2.53,2.53,0,0,1-2.68,2.35c-2.08,0-3.46-1.05-4.85-4.05-.08-.19-.19-.36-.38-.36s-.36.16-.36.45v4.37c0,.26.11.4.27.4a.51.51,0,0,0,.37-.19l.86-.83a7,7,0,0,0,3.76,1,4.47,4.47,0,0,0,4.84-4.72c0-2.26-1.19-3.41-4.45-4.35"/><path class="cls-1" d="M172.64,21.91a4.18,4.18,0,0,1-1.47,3.44,6.48,6.48,0,0,1-4.19,1.2h-1.49v5.37h-2.34V17.57h4.13a6.18,6.18,0,0,1,4,1.1,3.92,3.92,0,0,1,1.34,3.24m-7.15,2.67h1.25a4.48,4.48,0,0,0,2.65-.63,2.29,2.29,0,0,0,.84-2,2.24,2.24,0,0,0-.75-1.85,3.72,3.72,0,0,0-2.36-.61h-1.63Z"/><polygon class="cls-1" points="195 31.92 186.88 31.92 186.88 17.57 195 17.57 195 19.55 189.23 19.55 189.23 23.46 194.64 23.46 194.64 25.42 189.23 25.42 189.23 29.93 195 29.93 195 31.92"/></svg>