<?xml version="1.0" encoding="UTF-8"?>
<svg xmlns="http://www.w3.org/2000/svg" xmlns:xlink="http://www.w3.org/1999/xlink" viewBox="0 0 30 30" width="30px" height="30px">
<g id="surface145382071">
<path style=" stroke:none;fill-rule:nonzero;fill:rgb(0%,0%,0%);fill-opacity:1;" d="M 28.125 6.183594 C 27.144531 6.605469 26.15625 6.921875 25.0625 7.023438 C 26.15625 6.394531 27.035156 5.332031 27.464844 4.175781 C 26.375 4.804688 25.28125 5.230469 24.082031 5.441406 C 22.984375 4.386719 21.5625 3.75 20.03125 3.75 C 17.078125 3.75 14.671875 6.078125 14.671875 8.9375 C 14.671875 9.351562 14.671875 9.777344 14.78125 10.101562 C 9.140625 10.101562 5.273438 6.921875 2.652344 3.75 C 2.101562 4.488281 1.882812 5.441406 1.882812 6.394531 C 1.882812 8.1875 2.871094 9.777344 4.292969 10.730469 C 3.414062 10.628906 2.542969 10.414062 1.882812 10.101562 C 1.882812 10.101562 1.882812 10.101562 1.882812 10.203125 C 1.882812 12.746094 3.742188 14.855469 6.152344 15.277344 C 5.714844 15.382812 5.273438 15.492188 4.722656 15.492188 C 4.402344 15.492188 4.074219 15.492188 3.742188 15.386719 C 4.402344 17.503906 7.457031 19.9375 9.859375 19.9375 C 8 21.304688 6.269531 22.5 2.8125 22.5 C 2.375 22.5 2.722656 22.5 1.875 22.5 C 4.277344 23.980469 7.125 24.375 10.078125 24.375 C 20.03125 24.375 25.394531 16.441406 25.394531 9.566406 C 25.394531 9.351562 25.394531 9.148438 25.394531 8.9375 C 26.484375 8.1875 27.363281 7.242188 28.125 6.183594 "/>
</g>
</svg>
